<svg height="512" viewBox="0 0 64 64" width="512" xmlns="http://www.w3.org/2000/svg"><path d="m32 32-25-14.5v29l25 14.5 25-14.5v-29z" fill="#4370ff"/><path d="m58 15.771-25-14.501a2 2 0 0 0 -2 0l-25 14.501a2.111 2.111 0 0 0 -1 1.729v29a2 2 0 0 0 1 1.731l25 14.5a2.034 2.034 0 0 0 2 0l25-14.5a2 2 0 0 0 1-1.731v-29a2.048 2.048 0 0 0 -1-1.729zm-40.5 20.009-4.5-2.61v4.63l4.5 2.61v9.876l-8.5-4.935v-24.377l8.5 4.93zm-6.513-18.28 21.013-12.187 8.513 4.938-8.513 4.938-4.527-2.626-3.987 2.312 4.527 2.625-8.513 4.939zm19.013 40.032-8.5-4.932v-9.875l8.5 4.931zm0-14.5-8.5-4.932v-9.876l8.5 4.931zm2-13.341-8.513-4.937 8.513-4.94 8.513 4.938zm10.5 8.409-4.5 2.61v4.626l4.5-2.611v9.875l-8.5 4.932v-24.377l8.5-4.931zm-6.513-20.6 8.513-4.937 8.513 4.937-8.513 4.939zm19.013 27.851-8.5 4.93v-9.876l8.5-4.93zm0-14.5-8.5 4.93v-9.881l8.5-4.93z"/></svg>